solid
 facet normal  0.000000e+00  1.000000e+00 -0.000000e+00
   outer loop
     vertex  1.016000e+01  5.715000e+00  8.100000e+00
     vertex -1.016000e+01  5.715000e+00  1.000000e-01
     vertex -1.016000e+01  5.715000e+00  8.100000e+00
   endloop
 endfacet
 facet normal  0.000000e+00  1.000000e+00 -0.000000e+00
   outer loop
     vertex  1.016000e+01  5.715000e+00  1.000000e-01
     vertex -1.016000e+01  5.715000e+00  1.000000e-01
     vertex  1.016000e+01  5.715000e+00  8.100000e+00
   endloop
 endfacet
 facet normal  1.000000e+00  0.000000e+00  0.000000e+00
   outer loop
     vertex  1.016000e+01 -5.715000e+00  1.000000e-01
     vertex  1.016000e+01  5.715000e+00  1.000000e-01
     vertex  1.016000e+01  5.715000e+00  8.100000e+00
   endloop
 endfacet
 facet normal  1.000000e+00  0.000000e+00 -0.000000e+00
   outer loop
     vertex  1.016000e+01 -5.715000e+00  1.000000e-01
     vertex  1.016000e+01  5.715000e+00  8.100000e+00
     vertex  1.016000e+01 -5.715000e+00  8.100000e+00
   endloop
 endfacet
 facet normal  0.000000e+00 -1.000000e+00  0.000000e+00
   outer loop
     vertex -1.016000e+01 -5.715000e+00  8.100000e+00
     vertex  1.016000e+01 -5.715000e+00  1.000000e-01
     vertex  1.016000e+01 -5.715000e+00  8.100000e+00
   endloop
 endfacet
 facet normal  0.000000e+00 -1.000000e+00  0.000000e+00
   outer loop
     vertex -1.016000e+01 -5.715000e+00  1.000000e-01
     vertex  1.016000e+01 -5.715000e+00  1.000000e-01
     vertex -1.016000e+01 -5.715000e+00  8.100000e+00
   endloop
 endfacet
 facet normal -1.000000e+00  0.000000e+00  0.000000e+00
   outer loop
     vertex -1.016000e+01  5.715000e+00  1.000000e-01
     vertex -1.016000e+01 -5.715000e+00  1.000000e-01
     vertex -1.016000e+01 -5.715000e+00  8.100000e+00
   endloop
 endfacet
 facet normal -1.000000e+00  0.000000e+00  0.000000e+00
   outer loop
     vertex -1.016000e+01  5.715000e+00  1.000000e-01
     vertex -1.016000e+01 -5.715000e+00  8.100000e+00
     vertex -1.016000e+01  5.715000e+00  8.100000e+00
   endloop
 endfacet
 facet normal  0.000000e+00  0.000000e+00 -1.000000e+00
   outer loop
     vertex -1.016000e+01 -5.715000e+00  1.000000e-01
     vertex -1.016000e+01  5.715000e+00  1.000000e-01
     vertex  1.016000e+01 -5.715000e+00  1.000000e-01
   endloop
 endfacet
 facet normal  0.000000e+00  0.000000e+00 -1.000000e+00
   outer loop
     vertex  1.016000e+01 -5.715000e+00  1.000000e-01
     vertex -1.016000e+01  5.715000e+00  1.000000e-01
     vertex  1.016000e+01  5.715000e+00  1.000000e-01
   endloop
 endfacet
 facet normal  0.000000e+00  0.000000e+00  1.000000e+00
   outer loop
     vertex  1.016000e+01 -5.715000e+00  8.100000e+00
     vertex -1.016000e+01  5.715000e+00  8.100000e+00
     vertex -1.016000e+01 -5.715000e+00  8.100000e+00
   endloop
 endfacet
 facet normal  0.000000e+00  0.000000e+00  1.000000e+00
   outer loop
     vertex  1.016000e+01  5.715000e+00  8.100000e+00
     vertex -1.016000e+01  5.715000e+00  8.100000e+00
     vertex  1.016000e+01 -5.715000e+00  8.100000e+00
   endloop
 endfacet
 facet normal -1.000000e+00 -0.000000e+00 -0.000000e+00
   outer loop
     vertex -9.582000e+00 -3.148000e+00  1.000000e-01
     vertex -9.582000e+00 -3.148000e+00  0.000000e+00
     vertex -9.582000e+00 -5.242000e+00  1.000000e-01
   endloop
 endfacet
 facet normal -1.000000e+00  0.000000e+00  0.000000e+00
   outer loop
     vertex -9.582000e+00 -3.148000e+00  0.000000e+00
     vertex -9.582000e+00 -5.242000e+00  0.000000e+00
     vertex -9.582000e+00 -5.242000e+00  1.000000e-01
   endloop
 endfacet
 facet normal  1.000000e+00 -0.000000e+00  0.000000e+00
   outer loop
     vertex -8.198000e+00 -5.242000e+00  1.000000e-01
     vertex -8.198000e+00 -3.148000e+00  0.000000e+00
     vertex -8.198000e+00 -3.148000e+00  1.000000e-01
   endloop
 endfacet
 facet normal  1.000000e+00 -0.000000e+00  0.000000e+00
   outer loop
     vertex -8.198000e+00 -5.242000e+00  1.000000e-01
     vertex -8.198000e+00 -5.242000e+00  0.000000e+00
     vertex -8.198000e+00 -3.148000e+00  0.000000e+00
   endloop
 endfacet
 facet normal  0.000000e+00 -1.000000e+00  0.000000e+00
   outer loop
     vertex -9.582000e+00 -5.242000e+00  0.000000e+00
     vertex -8.198000e+00 -5.242000e+00  0.000000e+00
     vertex -8.198000e+00 -5.242000e+00  1.000000e-01
   endloop
 endfacet
 facet normal  0.000000e+00 -1.000000e+00  0.000000e+00
   outer loop
     vertex -9.582000e+00 -5.242000e+00  1.000000e-01
     vertex -9.582000e+00 -5.242000e+00  0.000000e+00
     vertex -8.198000e+00 -5.242000e+00  1.000000e-01
   endloop
 endfacet
 facet normal  0.000000e+00  1.000000e+00  0.000000e+00
   outer loop
     vertex -8.198000e+00 -3.148000e+00  1.000000e-01
     vertex -8.198000e+00 -3.148000e+00  0.000000e+00
     vertex -9.582000e+00 -3.148000e+00  0.000000e+00
   endloop
 endfacet
 facet normal  0.000000e+00  1.000000e+00 -0.000000e+00
   outer loop
     vertex -8.198000e+00 -3.148000e+00  1.000000e-01
     vertex -9.582000e+00 -3.148000e+00  0.000000e+00
     vertex -9.582000e+00 -3.148000e+00  1.000000e-01
   endloop
 endfacet
 facet normal  0.000000e+00  0.000000e+00 -1.000000e+00
   outer loop
     vertex -8.198000e+00 -5.242000e+00  0.000000e+00
     vertex -9.582000e+00 -5.242000e+00  0.000000e+00
     vertex -9.582000e+00 -3.148000e+00  0.000000e+00
   endloop
 endfacet
 facet normal  0.000000e+00  0.000000e+00 -1.000000e+00
   outer loop
     vertex -8.198000e+00 -5.242000e+00  0.000000e+00
     vertex -9.582000e+00 -3.148000e+00  0.000000e+00
     vertex -8.198000e+00 -3.148000e+00  0.000000e+00
   endloop
 endfacet
 facet normal -0.000000e+00  0.000000e+00  1.000000e+00
   outer loop
     vertex -9.582000e+00 -3.148000e+00  1.000000e-01
     vertex -9.582000e+00 -5.242000e+00  1.000000e-01
     vertex -8.198000e+00 -5.242000e+00  1.000000e-01
   endloop
 endfacet
 facet normal  0.000000e+00  0.000000e+00  1.000000e+00
   outer loop
     vertex -8.198000e+00 -3.148000e+00  1.000000e-01
     vertex -9.582000e+00 -3.148000e+00  1.000000e-01
     vertex -8.198000e+00 -5.242000e+00  1.000000e-01
   endloop
 endfacet
 facet normal -1.000000e+00 -0.000000e+00 -0.000000e+00
   outer loop
     vertex  7.593000e+00 -3.753000e+00  1.000000e-01
     vertex  7.593000e+00 -3.753000e+00  0.000000e+00
     vertex  7.593000e+00 -5.137000e+00  1.000000e-01
   endloop
 endfacet
 facet normal -1.000000e+00  0.000000e+00  0.000000e+00
   outer loop
     vertex  7.593000e+00 -3.753000e+00  0.000000e+00
     vertex  7.593000e+00 -5.137000e+00  0.000000e+00
     vertex  7.593000e+00 -5.137000e+00  1.000000e-01
   endloop
 endfacet
 facet normal  1.000000e+00 -0.000000e+00  0.000000e+00
   outer loop
     vertex  9.687000e+00 -5.137000e+00  1.000000e-01
     vertex  9.687000e+00 -3.753000e+00  0.000000e+00
     vertex  9.687000e+00 -3.753000e+00  1.000000e-01
   endloop
 endfacet
 facet normal  1.000000e+00 -0.000000e+00  0.000000e+00
   outer loop
     vertex  9.687000e+00 -5.137000e+00  1.000000e-01
     vertex  9.687000e+00 -5.137000e+00  0.000000e+00
     vertex  9.687000e+00 -3.753000e+00  0.000000e+00
   endloop
 endfacet
 facet normal  0.000000e+00 -1.000000e+00  0.000000e+00
   outer loop
     vertex  7.593000e+00 -5.137000e+00  0.000000e+00
     vertex  9.687000e+00 -5.137000e+00  0.000000e+00
     vertex  9.687000e+00 -5.137000e+00  1.000000e-01
   endloop
 endfacet
 facet normal  0.000000e+00 -1.000000e+00  0.000000e+00
   outer loop
     vertex  7.593000e+00 -5.137000e+00  1.000000e-01
     vertex  7.593000e+00 -5.137000e+00  0.000000e+00
     vertex  9.687000e+00 -5.137000e+00  1.000000e-01
   endloop
 endfacet
 facet normal  0.000000e+00  1.000000e+00  0.000000e+00
   outer loop
     vertex  9.687000e+00 -3.753000e+00  1.000000e-01
     vertex  9.687000e+00 -3.753000e+00  0.000000e+00
     vertex  7.593000e+00 -3.753000e+00  0.000000e+00
   endloop
 endfacet
 facet normal  0.000000e+00  1.000000e+00 -0.000000e+00
   outer loop
     vertex  9.687000e+00 -3.753000e+00  1.000000e-01
     vertex  7.593000e+00 -3.753000e+00  0.000000e+00
     vertex  7.593000e+00 -3.753000e+00  1.000000e-01
   endloop
 endfacet
 facet normal  0.000000e+00  0.000000e+00 -1.000000e+00
   outer loop
     vertex  7.593000e+00 -5.137000e+00  0.000000e+00
     vertex  7.593000e+00 -3.753000e+00  0.000000e+00
     vertex  9.687000e+00 -5.137000e+00  0.000000e+00
   endloop
 endfacet
 facet normal  0.000000e+00  0.000000e+00 -1.000000e+00
   outer loop
     vertex  9.687000e+00 -5.137000e+00  0.000000e+00
     vertex  7.593000e+00 -3.753000e+00  0.000000e+00
     vertex  9.687000e+00 -3.753000e+00  0.000000e+00
   endloop
 endfacet
 facet normal  0.000000e+00  0.000000e+00  1.000000e+00
   outer loop
     vertex  9.687000e+00 -5.137000e+00  1.000000e-01
     vertex  7.593000e+00 -3.753000e+00  1.000000e-01
     vertex  7.593000e+00 -5.137000e+00  1.000000e-01
   endloop
 endfacet
 facet normal  0.000000e+00  0.000000e+00  1.000000e+00
   outer loop
     vertex  9.687000e+00 -3.753000e+00  1.000000e-01
     vertex  7.593000e+00 -3.753000e+00  1.000000e-01
     vertex  9.687000e+00 -5.137000e+00  1.000000e-01
   endloop
 endfacet
 facet normal -1.000000e+00 -0.000000e+00 -0.000000e+00
   outer loop
     vertex  2.763000e+00  5.137000e+00  1.000000e-01
     vertex  2.763000e+00  5.137000e+00  0.000000e+00
     vertex  2.763000e+00  3.753000e+00  1.000000e-01
   endloop
 endfacet
 facet normal -1.000000e+00  0.000000e+00  0.000000e+00
   outer loop
     vertex  2.763000e+00  5.137000e+00  0.000000e+00
     vertex  2.763000e+00  3.753000e+00  0.000000e+00
     vertex  2.763000e+00  3.753000e+00  1.000000e-01
   endloop
 endfacet
 facet normal  1.000000e+00 -0.000000e+00  0.000000e+00
   outer loop
     vertex  4.857000e+00  3.753000e+00  1.000000e-01
     vertex  4.857000e+00  5.137000e+00  0.000000e+00
     vertex  4.857000e+00  5.137000e+00  1.000000e-01
   endloop
 endfacet
 facet normal  1.000000e+00 -0.000000e+00  0.000000e+00
   outer loop
     vertex  4.857000e+00  3.753000e+00  1.000000e-01
     vertex  4.857000e+00  3.753000e+00  0.000000e+00
     vertex  4.857000e+00  5.137000e+00  0.000000e+00
   endloop
 endfacet
 facet normal  0.000000e+00 -1.000000e+00  0.000000e+00
   outer loop
     vertex  2.763000e+00  3.753000e+00  0.000000e+00
     vertex  4.857000e+00  3.753000e+00  0.000000e+00
     vertex  4.857000e+00  3.753000e+00  1.000000e-01
   endloop
 endfacet
 facet normal  0.000000e+00 -1.000000e+00  0.000000e+00
   outer loop
     vertex  2.763000e+00  3.753000e+00  1.000000e-01
     vertex  2.763000e+00  3.753000e+00  0.000000e+00
     vertex  4.857000e+00  3.753000e+00  1.000000e-01
   endloop
 endfacet
 facet normal  0.000000e+00  1.000000e+00  0.000000e+00
   outer loop
     vertex  4.857000e+00  5.137000e+00  1.000000e-01
     vertex  4.857000e+00  5.137000e+00  0.000000e+00
     vertex  2.763000e+00  5.137000e+00  0.000000e+00
   endloop
 endfacet
 facet normal  0.000000e+00  1.000000e+00 -0.000000e+00
   outer loop
     vertex  4.857000e+00  5.137000e+00  1.000000e-01
     vertex  2.763000e+00  5.137000e+00  0.000000e+00
     vertex  2.763000e+00  5.137000e+00  1.000000e-01
   endloop
 endfacet
 facet normal  0.000000e+00  0.000000e+00 -1.000000e+00
   outer loop
     vertex  2.763000e+00  3.753000e+00  0.000000e+00
     vertex  2.763000e+00  5.137000e+00  0.000000e+00
     vertex  4.857000e+00  5.137000e+00  0.000000e+00
   endloop
 endfacet
 facet normal  0.000000e+00  0.000000e+00 -1.000000e+00
   outer loop
     vertex  4.857000e+00  3.753000e+00  0.000000e+00
     vertex  2.763000e+00  3.753000e+00  0.000000e+00
     vertex  4.857000e+00  5.137000e+00  0.000000e+00
   endloop
 endfacet
 facet normal  0.000000e+00  0.000000e+00  1.000000e+00
   outer loop
     vertex  4.857000e+00  5.137000e+00  1.000000e-01
     vertex  2.763000e+00  5.137000e+00  1.000000e-01
     vertex  2.763000e+00  3.753000e+00  1.000000e-01
   endloop
 endfacet
 facet normal -0.000000e+00  0.000000e+00  1.000000e+00
   outer loop
     vertex  4.857000e+00  5.137000e+00  1.000000e-01
     vertex  2.763000e+00  3.753000e+00  1.000000e-01
     vertex  4.857000e+00  3.753000e+00  1.000000e-01
   endloop
 endfacet
 facet normal -1.000000e+00 -0.000000e+00 -0.000000e+00
   outer loop
     vertex -1.297000e+00  5.137000e+00  1.000000e-01
     vertex -1.297000e+00  5.137000e+00  0.000000e+00
     vertex -1.297000e+00  3.753000e+00  1.000000e-01
   endloop
 endfacet
 facet normal -1.000000e+00  0.000000e+00  0.000000e+00
   outer loop
     vertex -1.297000e+00  5.137000e+00  0.000000e+00
     vertex -1.297000e+00  3.753000e+00  0.000000e+00
     vertex -1.297000e+00  3.753000e+00  1.000000e-01
   endloop
 endfacet
 facet normal  1.000000e+00 -0.000000e+00  0.000000e+00
   outer loop
     vertex  7.970000e-01  3.753000e+00  1.000000e-01
     vertex  7.970000e-01  5.137000e+00  0.000000e+00
     vertex  7.970000e-01  5.137000e+00  1.000000e-01
   endloop
 endfacet
 facet normal  1.000000e+00 -0.000000e+00  0.000000e+00
   outer loop
     vertex  7.970000e-01  3.753000e+00  1.000000e-01
     vertex  7.970000e-01  3.753000e+00  0.000000e+00
     vertex  7.970000e-01  5.137000e+00  0.000000e+00
   endloop
 endfacet
 facet normal  0.000000e+00 -1.000000e+00  0.000000e+00
   outer loop
     vertex -1.297000e+00  3.753000e+00  0.000000e+00
     vertex  7.970000e-01  3.753000e+00  0.000000e+00
     vertex  7.970000e-01  3.753000e+00  1.000000e-01
   endloop
 endfacet
 facet normal  0.000000e+00 -1.000000e+00  0.000000e+00
   outer loop
     vertex -1.297000e+00  3.753000e+00  1.000000e-01
     vertex -1.297000e+00  3.753000e+00  0.000000e+00
     vertex  7.970000e-01  3.753000e+00  1.000000e-01
   endloop
 endfacet
 facet normal  0.000000e+00  1.000000e+00  0.000000e+00
   outer loop
     vertex  7.970000e-01  5.137000e+00  1.000000e-01
     vertex  7.970000e-01  5.137000e+00  0.000000e+00
     vertex -1.297000e+00  5.137000e+00  0.000000e+00
   endloop
 endfacet
 facet normal  0.000000e+00  1.000000e+00 -0.000000e+00
   outer loop
     vertex  7.970000e-01  5.137000e+00  1.000000e-01
     vertex -1.297000e+00  5.137000e+00  0.000000e+00
     vertex -1.297000e+00  5.137000e+00  1.000000e-01
   endloop
 endfacet
 facet normal  0.000000e+00  0.000000e+00 -1.000000e+00
   outer loop
     vertex -1.297000e+00  3.753000e+00  0.000000e+00
     vertex -1.297000e+00  5.137000e+00  0.000000e+00
     vertex  7.970000e-01  5.137000e+00  0.000000e+00
   endloop
 endfacet
 facet normal  0.000000e+00  0.000000e+00 -1.000000e+00
   outer loop
     vertex  7.970000e-01  3.753000e+00  0.000000e+00
     vertex -1.297000e+00  3.753000e+00  0.000000e+00
     vertex  7.970000e-01  5.137000e+00  0.000000e+00
   endloop
 endfacet
 facet normal  0.000000e+00  0.000000e+00  1.000000e+00
   outer loop
     vertex  7.970000e-01  5.137000e+00  1.000000e-01
     vertex -1.297000e+00  5.137000e+00  1.000000e-01
     vertex -1.297000e+00  3.753000e+00  1.000000e-01
   endloop
 endfacet
 facet normal -0.000000e+00  0.000000e+00  1.000000e+00
   outer loop
     vertex  7.970000e-01  5.137000e+00  1.000000e-01
     vertex -1.297000e+00  3.753000e+00  1.000000e-01
     vertex  7.970000e-01  3.753000e+00  1.000000e-01
   endloop
 endfacet
 facet normal -1.000000e+00 -0.000000e+00 -0.000000e+00
   outer loop
     vertex -5.367000e+00  5.137000e+00  1.000000e-01
     vertex -5.367000e+00  5.137000e+00  0.000000e+00
     vertex -5.367000e+00  3.753000e+00  1.000000e-01
   endloop
 endfacet
 facet normal -1.000000e+00  0.000000e+00  0.000000e+00
   outer loop
     vertex -5.367000e+00  5.137000e+00  0.000000e+00
     vertex -5.367000e+00  3.753000e+00  0.000000e+00
     vertex -5.367000e+00  3.753000e+00  1.000000e-01
   endloop
 endfacet
 facet normal  1.000000e+00 -0.000000e+00  0.000000e+00
   outer loop
     vertex -3.273000e+00  3.753000e+00  1.000000e-01
     vertex -3.273000e+00  5.137000e+00  0.000000e+00
     vertex -3.273000e+00  5.137000e+00  1.000000e-01
   endloop
 endfacet
 facet normal  1.000000e+00 -0.000000e+00  0.000000e+00
   outer loop
     vertex -3.273000e+00  3.753000e+00  1.000000e-01
     vertex -3.273000e+00  3.753000e+00  0.000000e+00
     vertex -3.273000e+00  5.137000e+00  0.000000e+00
   endloop
 endfacet
 facet normal  0.000000e+00 -1.000000e+00  0.000000e+00
   outer loop
     vertex -5.367000e+00  3.753000e+00  0.000000e+00
     vertex -3.273000e+00  3.753000e+00  0.000000e+00
     vertex -3.273000e+00  3.753000e+00  1.000000e-01
   endloop
 endfacet
 facet normal  0.000000e+00 -1.000000e+00  0.000000e+00
   outer loop
     vertex -5.367000e+00  3.753000e+00  1.000000e-01
     vertex -5.367000e+00  3.753000e+00  0.000000e+00
     vertex -3.273000e+00  3.753000e+00  1.000000e-01
   endloop
 endfacet
 facet normal  0.000000e+00  1.000000e+00  0.000000e+00
   outer loop
     vertex -3.273000e+00  5.137000e+00  1.000000e-01
     vertex -3.273000e+00  5.137000e+00  0.000000e+00
     vertex -5.367000e+00  5.137000e+00  0.000000e+00
   endloop
 endfacet
 facet normal  0.000000e+00  1.000000e+00 -0.000000e+00
   outer loop
     vertex -3.273000e+00  5.137000e+00  1.000000e-01
     vertex -5.367000e+00  5.137000e+00  0.000000e+00
     vertex -5.367000e+00  5.137000e+00  1.000000e-01
   endloop
 endfacet
 facet normal  0.000000e+00  0.000000e+00 -1.000000e+00
   outer loop
     vertex -5.367000e+00  3.753000e+00  0.000000e+00
     vertex -5.367000e+00  5.137000e+00  0.000000e+00
     vertex -3.273000e+00  5.137000e+00  0.000000e+00
   endloop
 endfacet
 facet normal  0.000000e+00  0.000000e+00 -1.000000e+00
   outer loop
     vertex -3.273000e+00  3.753000e+00  0.000000e+00
     vertex -5.367000e+00  3.753000e+00  0.000000e+00
     vertex -3.273000e+00  5.137000e+00  0.000000e+00
   endloop
 endfacet
 facet normal  0.000000e+00  0.000000e+00  1.000000e+00
   outer loop
     vertex -3.273000e+00  5.137000e+00  1.000000e-01
     vertex -5.367000e+00  5.137000e+00  1.000000e-01
     vertex -5.367000e+00  3.753000e+00  1.000000e-01
   endloop
 endfacet
 facet normal -0.000000e+00  0.000000e+00  1.000000e+00
   outer loop
     vertex -3.273000e+00  5.137000e+00  1.000000e-01
     vertex -5.367000e+00  3.753000e+00  1.000000e-01
     vertex -3.273000e+00  3.753000e+00  1.000000e-01
   endloop
 endfacet
 facet normal -1.000000e+00 -0.000000e+00 -0.000000e+00
   outer loop
     vertex -9.687000e+00  5.137000e+00  1.000000e-01
     vertex -9.687000e+00  5.137000e+00  0.000000e+00
     vertex -9.687000e+00  3.753000e+00  1.000000e-01
   endloop
 endfacet
 facet normal -1.000000e+00  0.000000e+00  0.000000e+00
   outer loop
     vertex -9.687000e+00  5.137000e+00  0.000000e+00
     vertex -9.687000e+00  3.753000e+00  0.000000e+00
     vertex -9.687000e+00  3.753000e+00  1.000000e-01
   endloop
 endfacet
 facet normal  1.000000e+00 -0.000000e+00  0.000000e+00
   outer loop
     vertex -7.593000e+00  3.753000e+00  1.000000e-01
     vertex -7.593000e+00  5.137000e+00  0.000000e+00
     vertex -7.593000e+00  5.137000e+00  1.000000e-01
   endloop
 endfacet
 facet normal  1.000000e+00 -0.000000e+00  0.000000e+00
   outer loop
     vertex -7.593000e+00  3.753000e+00  1.000000e-01
     vertex -7.593000e+00  3.753000e+00  0.000000e+00
     vertex -7.593000e+00  5.137000e+00  0.000000e+00
   endloop
 endfacet
 facet normal  0.000000e+00 -1.000000e+00  0.000000e+00
   outer loop
     vertex -9.687000e+00  3.753000e+00  0.000000e+00
     vertex -7.593000e+00  3.753000e+00  0.000000e+00
     vertex -7.593000e+00  3.753000e+00  1.000000e-01
   endloop
 endfacet
 facet normal  0.000000e+00 -1.000000e+00  0.000000e+00
   outer loop
     vertex -9.687000e+00  3.753000e+00  1.000000e-01
     vertex -9.687000e+00  3.753000e+00  0.000000e+00
     vertex -7.593000e+00  3.753000e+00  1.000000e-01
   endloop
 endfacet
 facet normal  0.000000e+00  1.000000e+00  0.000000e+00
   outer loop
     vertex -7.593000e+00  5.137000e+00  1.000000e-01
     vertex -7.593000e+00  5.137000e+00  0.000000e+00
     vertex -9.687000e+00  5.137000e+00  0.000000e+00
   endloop
 endfacet
 facet normal  0.000000e+00  1.000000e+00 -0.000000e+00
   outer loop
     vertex -7.593000e+00  5.137000e+00  1.000000e-01
     vertex -9.687000e+00  5.137000e+00  0.000000e+00
     vertex -9.687000e+00  5.137000e+00  1.000000e-01
   endloop
 endfacet
 facet normal  0.000000e+00  0.000000e+00 -1.000000e+00
   outer loop
     vertex -9.687000e+00  3.753000e+00  0.000000e+00
     vertex -9.687000e+00  5.137000e+00  0.000000e+00
     vertex -7.593000e+00  5.137000e+00  0.000000e+00
   endloop
 endfacet
 facet normal  0.000000e+00  0.000000e+00 -1.000000e+00
   outer loop
     vertex -7.593000e+00  3.753000e+00  0.000000e+00
     vertex -9.687000e+00  3.753000e+00  0.000000e+00
     vertex -7.593000e+00  5.137000e+00  0.000000e+00
   endloop
 endfacet
 facet normal  0.000000e+00  0.000000e+00  1.000000e+00
   outer loop
     vertex -7.593000e+00  5.137000e+00  1.000000e-01
     vertex -9.687000e+00  5.137000e+00  1.000000e-01
     vertex -9.687000e+00  3.753000e+00  1.000000e-01
   endloop
 endfacet
 facet normal -0.000000e+00  0.000000e+00  1.000000e+00
   outer loop
     vertex -7.593000e+00  5.137000e+00  1.000000e-01
     vertex -9.687000e+00  3.753000e+00  1.000000e-01
     vertex -7.593000e+00  3.753000e+00  1.000000e-01
   endloop
 endfacet
endsolid
